<svg width="1886" height="834" xmlns="http://www.w3.org/2000/svg">

 <g>
  <title>Layer 1</title>
  <g stroke-width="3" id="svg_2" fill-rule="evenodd" fill="#333333" stroke="#888888">
   <path id="svg_3" d="m1788,124l-3,-7l-4,-4l0,-1l-10,-7l-4,-1l-3,-2l-3,0l-5,-2l-4,0l-1,-1l-6,0l-1,-1l-87,-2l-1,-1l-19,0l-1,-1l-14,0l-1,-1l-18,0l-1,-1l-18,0l-1,-1l-19,0l-1,-1l-18,0l-1,-1l-31,-1l-1,-1l-7,0l-11,-4l-10,-2l-4,-2l-4,0l-1,-1l-4,0l-1,-1l-4,0l-1,-1l-12,-1l-1,-1l-6,0l-1,-1l-8,0l-1,-1l-30,-1l-1,-1l-45,0l-1,1l-26,0l-1,1l-15,0l-1,1l-11,0l-1,1l-22,1l-1,1l-18,1l-1,1l-7,0l-1,1l-6,0l-1,1l-17,2l-5,2l-5,0l-1,1l-4,0l-1,1l-4,0l-5,2l-4,0l-1,1l-4,0l-1,1l-4,0l-1,1l-5,0l-1,1l-6,0l-1,1l-15,0l-1,1l-116,0l-1,-1l-12,0l-1,1l-21,0l-1,-1l-41,0l-1,1l-58,0l-1,-1l-4,0l-1,1l-4,0l-1,-1l-2,1l-2,0l-1,-1l-6,0l-1,1l-49,0l-1,-1l-11,0l-1,1l-24,0l-1,-1l-57,0l-1,1l-45,0l-1,-1l-1,1l-2,-1l-30,1l-1,-1l-33,0l-1,1l-17,0l-1,-1l-13,0l-1,1l-9,0l-1,-1l-3,0l-1,1l-4,0l-1,-1l-33,-1l-1,-1l-64,-1l-1,1l-29,0l-1,1l-18,0l-1,1l-14,0l-1,1l-11,0l-1,1l-8,0l-1,1l-9,0l-1,1l-7,0l-1,1l-20,2l-1,1l-5,0l-1,1l-17,2l-1,1l-4,0l-1,1l-5,0l-5,2l-5,0l-1,1l-7,1l-6,3l-4,0l-1,1l-11,2l-1,1l-2,0l-13,5l-3,0l-3,2l-3,0l-1,1l-5,1l-3,2l-5,1l-3,2l-2,0l-3,2l-7,2l-9,5l-2,0l-26,14l-22,15l-4,4l-6,4l-11,11l-1,0l-21,23l-17,24l-1,3l-8,12l-13,26l0,2l-3,5l0,2l-4,8l0,2l-1,1l0,2l-1,1l-2,8l-2,3l-1,6l-3,7l0,3l-2,4l0,3l-2,5l0,4l-2,5l0,4l-1,1l-1,12l-1,1l0,6l-1,1l0,9l-1,1l0,12l-1,1l0,49l1,1l0,12l1,1l0,8l1,1l0,6l1,1l1,11l1,1l0,3l1,1l1,8l1,1l1,7l2,4l0,3l1,1l0,2l2,4l0,3l1,1l1,5l2,3l2,8l8,17l0,2l13,26l10,15l1,3l18,24l6,6l0,1l25,24l1,0l16,13l20,13l25,13l2,0l12,6l5,1l3,2l2,0l1,1l2,0l1,1l2,0l1,1l2,0l22,8l10,2l4,2l6,0l1,1l2,0l4,2l3,0l1,1l3,0l1,1l4,0l5,2l4,0l1,1l4,0l1,1l4,0l1,1l5,0l1,1l4,0l1,1l5,0l1,1l6,0l1,1l6,0l1,1l6,0l1,1l7,0l1,1l7,0l1,1l8,0l1,1l9,0l1,1l25,1l1,1l24,0l1,1l78,0l1,-1l19,0l1,-1l15,0l1,-1l603,0l1,1l13,1l1,1l4,0l1,1l14,2l1,1l3,0l5,2l4,0l5,2l4,0l1,1l9,1l1,1l4,0l1,1l5,0l1,1l7,0l1,1l7,0l1,1l8,0l1,1l9,0l1,1l24,1l1,1l15,0l1,1l29,0l1,1l33,0l1,-1l23,0l1,-1l23,-1l1,-1l15,-1l1,-1l4,0l1,-1l5,0l1,-1l9,-1l1,-1l7,-1l4,-2l3,0l10,-4l6,0l1,-1l33,-1l1,-1l16,0l1,-1l21,0l1,-1l23,0l1,-1l17,0l1,-1l14,0l1,-1l34,0l1,-1l37,0l1,-1l20,0l1,-1l14,0l1,-1l10,-1l1,-1l3,0l3,-2l2,0l11,-6l7,-8l4,-10l1,-18l1,-1l0,-13l1,-1l0,-13l1,-1l0,-13l1,-1l0,-13l1,-1l0,-16l1,-1l0,-15l1,-1l0,-18l1,-1l0,-18l1,-1l1,-50l1,-1l0,-37l1,-1l0,-107l-1,-1l0,-35l-1,-1l0,-28l-1,-1l-1,-42l-1,-1l0,-16l-1,-1l0,-16l-1,-1l0,-16l-1,-1l-1,-30l-1,-1l0,-12l-1,-1l-1,-25l-1,-1l-1,-12zm-1500,594l1,-1l1,1l-1,1l-1,-1zm-2,-22l2,-1l19,7l3,0l1,1l6,1l8,3l4,0l5,2l4,0l1,1l4,0l5,2l5,0l1,1l4,0l1,1l4,0l1,1l11,1l1,1l6,0l1,1l6,0l1,1l12,1l1,1l7,0l1,1l6,0l1,1l6,0l1,1l7,0l1,1l8,0l1,1l7,0l1,1l7,0l1,1l8,0l1,1l7,0l1,1l9,0l1,1l8,0l1,1l18,1l1,1l16,1l1,1l7,0l1,1l7,0l1,1l8,0l1,1l-1,1l-6,0l-1,1l-21,0l-1,1l-61,0l-1,-1l-27,0l-1,-1l-27,-1l-1,-1l-9,0l-1,-1l-8,0l-1,-1l-7,0l-1,-1l-6,0l-1,-1l-14,-1l-1,-1l-5,0l-1,-1l-5,0l-1,-1l-5,0l-1,-1l-5,0l-1,-1l-4,0l-1,-1l-4,0l-1,-1l-14,-2l-1,-1l-7,-1l-3,-2l-6,-1l-2,-2l-3,-8l0,-4l-1,-1l0,-5l-1,-1l0,-2zm456,40l2,-4l0,-3l1,-1l6,-20l2,-3l0,-2l3,-7l0,-3l2,-2l377,0l13,12l0,1l7,8l5,9l0,2l2,3l0,3l1,1l0,8l-1,1l-419,0l-1,-1l0,-2zm981,-61l-5,11l0,2l-2,3l0,2l-3,5l0,2l-3,5l0,2l-7,14l0,2l-2,4l0,9l-1,1l-34,0l-1,1l-16,0l-1,-1l18,-24l24,-36l3,-3l29,0l1,1zm-543,12l1,-2l0,-5l1,-1l0,-6l1,-1l1,-11l1,-1l0,-5l1,-1l0,-6l1,-1l50,1l1,1l16,0l1,1l13,0l1,1l22,1l1,1l18,1l1,1l7,0l1,1l7,0l1,1l20,2l1,1l9,1l4,2l-5,3l-13,4l-8,4l-9,1l-1,1l-7,0l-1,1l-7,0l-1,1l-8,0l-1,1l-8,0l-1,1l-9,0l-1,1l-9,0l-1,1l-9,0l-1,1l-23,1l-1,1l-33,1l-1,1l-21,0l-1,1l-1,-1zm-34,-41l35,0l3,2l-1,11l-1,1l0,5l-1,1l0,5l-1,1l0,5l-1,1l0,5l-2,5l-1,-1l-38,0l-1,-1l1,-8l2,-5l0,-4l1,-1l0,-3l2,-5l0,-4l2,-5l0,-4l1,-1zm-2,1l-2,4l-1,8l-1,1l0,3l-1,1l0,3l-2,5l0,4l-1,1l-1,7l-2,4l-51,0l-1,1l-16,0l-1,-1l-173,0l-1,1l-5,0l-1,-1l-2,1l-2,0l-1,-1l-5,0l-1,1l-39,0l-1,-1l-10,0l-1,1l-85,0l-1,-1l1,-1l4,0l5,-2l9,-1l5,-2l4,0l5,-2l4,0l5,-2l4,0l5,-2l4,0l1,-1l4,0l1,-1l4,0l1,-1l4,0l1,-1l4,0l1,-1l4,0l1,-1l5,0l1,-1l4,0l1,-1l5,0l1,-1l4,0l1,-1l5,0l1,-1l4,0l1,-1l6,0l1,-1l4,0l1,-1l5,0l1,-1l4,0l1,-1l12,-1l1,-1l5,0l1,-1l5,0l1,-1l7,0l1,-1l6,0l1,-1l6,0l1,-1l6,0l1,-1l7,0l1,-1l8,0l1,-1l21,-1l1,-1l14,0l1,-1l19,0l1,-1l26,0l1,-1l105,0l1,1l9,0l1,1zm545,28l-12,17l-1,3l-3,3l-4,7l-3,3l-2,4l-3,3l-2,4l-3,3l-2,4l-9,12l-8,0l-1,1l-16,0l-1,1l-18,0l-1,1l-22,0l-1,1l-22,0l-1,1l-18,0l-1,1l-14,0l-1,1l-15,0l-1,1l-3,0l-10,4l-7,1l-4,2l-8,1l-1,1l-4,0l-1,1l-4,0l-1,1l-5,0l-1,1l-8,0l-1,1l-7,0l-1,1l-10,0l-1,1l-39,1l-1,1l-52,-1l-1,-1l-18,0l-1,-1l-13,0l-1,-1l-10,0l-1,-1l-11,0l-1,-1l-8,0l-1,-1l-7,0l-1,-1l-6,0l-1,-1l-11,-1l-1,-1l-9,-1l-5,-2l-4,0l-1,-1l-8,-1l-1,-1l-8,-1l-1,-1l-8,-1l-1,-1l-5,0l-1,-1l-5,0l-1,-1l-6,0l-1,-1l-11,0l-1,-1l0,-7l-1,-1l0,-3l-4,-10l-8,-12l-7,-7l0,-1l-1,0l-6,-6l1,-1l48,0l1,-1l23,0l1,-1l15,0l1,-1l24,-1l1,-1l10,0l1,-1l10,0l1,-1l9,0l1,-1l9,0l1,-1l17,-1l1,-1l6,0l1,-1l7,0l1,-1l6,0l1,-1l7,0l1,-1l15,-1l1,-1l6,0l1,-1l6,0l1,-1l6,0l1,-1l20,-2l1,-1l5,0l1,-1l6,0l1,-1l5,0l1,-1l10,-1l1,-1l9,-1l5,-2l5,0l1,-1l4,0l5,-2l4,0l1,-1l3,0l1,-1l15,-3l4,-2l7,-1l7,-3l3,0l1,-1l17,-5l3,-2l5,-1l3,-2l2,0l5,-3l4,-1l2,-2l8,-4l2,0l1,1l-1,-1l2,-2l2,1l6,9l4,4l9,13l4,4l3,5l13,16l88,0l1,1zm-1404,-53l1,-1l1,1l6,1l4,2l3,0l4,2l3,0l1,1l3,0l1,1l3,0l1,1l3,0l5,2l4,0l1,1l3,0l1,1l3,0l1,1l3,0l5,2l4,0l1,1l9,1l5,2l4,0l1,1l5,0l1,1l4,0l1,1l4,0l1,1l5,0l1,1l10,1l1,1l6,0l1,1l5,0l1,1l6,0l1,1l5,0l1,1l7,0l1,1l14,1l1,1l7,0l1,1l7,0l1,1l8,0l1,1l16,1l1,1l9,0l1,1l9,0l1,1l8,0l1,1l9,0l1,1l8,0l1,1l21,1l1,1l26,1l1,1l34,1l1,1l58,0l2,2l0,2l5,8l2,0l7,4l2,0l4,2l9,1l1,1l39,0l1,1l-1,1l-5,17l-2,3l0,2l-4,10l0,3l-3,7l0,3l-1,1l-170,0l-1,-1l-6,0l-1,-1l-6,0l-1,-1l-6,0l-1,-1l-6,0l-1,-1l-8,0l-1,-1l-7,0l-1,-1l-17,-1l-1,-1l-16,-1l-1,-1l-7,0l-1,-1l-9,0l-1,-1l-18,-1l-1,-1l-7,0l-1,-1l-15,-1l-1,-1l-6,0l-1,-1l-6,0l-1,-1l-7,0l-1,-1l-6,0l-1,-1l-7,0l-1,-1l-5,0l-1,-1l-5,0l-1,-1l-5,0l-1,-1l-12,-1l-1,-1l-4,0l-5,-2l-5,0l-1,-1l-4,0l-5,-2l-4,0l-1,-1l-3,0l-1,-1l-15,-3l-16,-6l-3,0l-3,-2l-3,0l-1,-1l-1,-10l-1,-1l0,-19l-1,-1l1,-2l0,-18l1,-1l0,-8l1,-1l0,-9zm1050,-408l219,0l5,2l0,4l1,1l0,13l1,1l0,14l1,1l0,15l1,1l1,42l1,1l0,26l1,1l1,109l-1,1l0,52l-1,1l-1,54l-1,1l0,17l-1,1l0,16l-1,1l-1,27l-2,5l-1,-1l-2,0l-1,1l-217,0l-1,-1l-1,1l-1,-1l0,-2l1,-1l0,-5l1,-1l0,-5l1,-1l0,-7l1,-1l0,-7l1,-1l0,-7l1,-1l0,-7l1,-1l0,-8l1,-1l0,-8l1,-1l1,-19l1,-1l0,-11l1,-1l0,-11l1,-1l0,-13l1,-1l0,-17l1,-1l0,-18l1,-1l0,-32l1,-1l0,-13l-1,-1l0,-35l-1,-1l-1,-40l-1,-1l0,-12l-1,-1l0,-11l-1,-1l0,-10l-1,-1l0,-10l-1,-1l-1,-19l-1,-1l0,-7l-1,-1l0,-7l-1,-1l0,-7l-1,-1l-1,-15l-1,-1l-1,-12l-1,-1l1,-2zm-690,-49l37,0l1,1l-3,7l-1,7l-2,4l0,3l-1,1l0,3l-1,1l0,3l-2,5l0,4l-1,1l0,4l-1,1l0,4l-1,1l0,4l-1,1l0,4l-1,1l0,6l-1,1l0,5l-1,1l0,5l-1,1l0,6l-1,1l0,7l-1,1l0,7l-1,1l0,8l-1,1l0,10l-1,1l-1,24l-1,1l-1,38l-1,1l0,34l-1,1l1,2l0,4l-1,1l0,65l1,1l0,35l1,1l0,22l1,1l0,11l1,1l0,12l1,1l1,23l1,1l1,16l1,1l0,6l1,1l0,6l1,1l0,6l1,1l0,4l1,1l1,11l1,1l0,4l2,5l0,4l1,1l2,11l1,1l1,6l5,13l-1,2l-37,0l-1,-1l0,-4l-1,-1l-1,-7l-3,-8l0,-4l-1,-1l0,-3l-2,-5l-1,-10l-1,-1l0,-4l-1,-1l0,-4l-1,-1l0,-6l-1,-1l-1,-13l-1,-1l0,-7l-1,-1l0,-8l-1,-1l-1,-24l-1,-1l0,-21l-1,-1l0,-207l1,-1l0,-24l1,-1l0,-15l1,-1l1,-21l1,-1l0,-8l1,-1l0,-8l1,-1l0,-6l1,-1l0,-5l1,-1l0,-6l1,-1l0,-5l1,-1l0,-5l1,-1l1,-9l2,-5l0,-4l1,-1l0,-3l1,-1l0,-3l1,-1l0,-3l2,-4l1,-8l1,-1zm-3,0l1,1l-3,7l0,3l-1,1l0,3l-1,1l0,3l-2,5l-1,9l-2,5l-1,9l-1,1l0,6l-1,1l0,5l-1,1l0,5l-1,1l0,7l-1,1l0,7l-1,1l0,7l-1,1l-1,19l-1,1l-1,35l-1,1l1,1l-1,1l0,150l-1,1l0,15l1,1l0,3l-1,1l1,1l-1,2l0,5l1,1l0,43l1,1l0,18l1,1l1,22l1,1l1,15l1,1l0,6l1,1l0,6l1,1l0,5l1,1l0,4l1,1l1,10l1,1l1,8l1,1l0,3l1,1l0,3l2,5l1,8l3,7l-1,1l-8,0l-1,-1l-21,0l-1,-1l-15,0l-1,-1l-13,0l-1,-1l-23,-1l-1,-1l-10,0l-1,-1l-10,0l-1,-1l-10,0l-1,-1l-8,0l-1,-1l-8,0l-1,-1l-9,0l-1,-1l-16,-1l-1,-1l-16,-1l-1,-1l-7,0l-1,-1l-7,0l-1,-1l-6,0l-1,-1l-6,0l-1,-1l-14,-1l-1,-1l-5,0l-1,-1l-6,0l-1,-1l-4,0l-1,-1l-11,-1l-1,-1l-4,0l-1,-1l-4,0l-1,-1l-5,0l-5,-2l-4,0l-1,-1l-9,-1l-5,-2l-9,-1l-1,-1l-3,0l-1,-1l-3,0l-5,-2l-4,0l-8,-3l-3,0l-8,-3l-3,0l-4,-2l-3,0l-1,-1l-20,-6l-3,-2l-2,0l-4,-2l-5,-5l-4,-7l-3,-3l-10,-15l-5,-10l-2,-2l-5,-10l0,-2l-4,-7l0,-2l-4,-8l-1,-5l-2,-3l0,-2l-2,-4l0,-3l-1,-1l0,-2l-3,-7l0,-3l-2,-4l0,-3l-2,-5l0,-4l-1,-1l0,-4l-1,-1l0,-4l-1,-1l0,-4l-1,-1l-1,-12l-1,-1l0,-6l-1,-1l0,-9l-1,-1l0,-14l-1,-1l0,-27l1,-1l0,-14l1,-1l0,-8l1,-1l0,-7l1,-1l1,-11l1,-1l2,-14l1,-1l0,-3l1,-1l3,-15l4,-10l0,-3l1,-1l1,-5l2,-3l1,-5l2,-3l2,-7l3,-5l0,-2l12,-24l19,-28l5,-5l4,-2l2,0l3,-2l5,-1l8,-4l2,0l7,-3l3,0l10,-4l3,0l4,-2l3,0l1,-1l7,-1l4,-2l3,0l1,-1l3,0l1,-1l3,0l5,-2l4,0l1,-1l3,0l1,-1l3,0l5,-2l4,0l1,-1l4,0l1,-1l4,0l1,-1l4,0l1,-1l5,0l1,-1l4,0l1,-1l4,0l1,-1l12,-1l1,-1l12,-1l1,-1l6,0l1,-1l6,0l1,-1l6,0l1,-1l5,0l1,-1l7,0l1,-1l7,0l1,-1l15,-1l1,-1l8,0l1,-1l7,0l1,-1l8,0l1,-1l8,0l1,-1l10,0l1,-1l10,0l1,-1l10,0l1,-1l12,0l1,-1l14,0l1,-1l16,0l1,-1l46,-1zm974,-1l106,0l1,1l0,506l-1,1l-106,0l-1,-1l1,-1l0,-4l-1,-1l0,-500l1,-1zm-15,0l12,0l1,1l0,506l-1,1l-12,0l-39,-50l0,-14l1,-1l0,-14l1,-1l0,-16l1,-1l0,-17l1,-1l1,-49l1,-1l0,-42l1,-1l0,-100l-1,-1l0,-34l-1,-1l-1,-47l-1,-1l0,-17l-1,-1l0,-15l-1,-1l0,-15l-1,-1l0,-13l-1,-1l0,-2l4,-4l14,-19l22,-27zm125,-1l22,0l1,1l-1,2l1,1l0,28l1,1l0,28l1,1l-1,1l0,2l1,1l0,43l1,1l0,41l1,1l0,49l1,1l-1,2l1,2l0,110l-1,1l0,48l-1,1l0,40l-1,1l-1,72l-1,1l0,26l-1,1l1,1l-1,1l-22,0l-1,-1l0,-507l1,-1zm-382,-1l1,-1l2,1l-1,1l-2,-1zm-649,-8l1,1l8,1l1,1l3,0l1,1l3,0l1,1l3,0l1,1l3,0l1,1l3,0l1,1l3,0l1,1l15,3l4,2l3,0l1,1l3,0l1,1l3,0l1,1l3,0l1,1l3,0l1,1l3,0l1,1l3,0l1,1l3,0l1,1l3,0l1,1l3,0l1,1l3,0l1,1l3,0l1,1l3,0l1,1l3,0l1,1l3,0l1,1l3,0l1,1l3,0l1,1l3,0l1,1l3,0l1,1l3,0l1,1l3,0l1,1l3,0l1,1l3,0l5,2l4,0l1,1l3,0l1,1l3,0l1,1l3,0l1,1l3,0l1,1l3,0l1,1l3,0l1,1l3,0l5,2l0,3l-1,1l0,8l-1,1l0,9l-1,1l0,9l-1,1l-1,19l-1,1l0,9l-1,1l0,9l-1,1l-1,22l-1,1l-1,26l-1,1l0,14l-1,1l0,18l-1,1l0,29l-1,1l0,67l1,1l0,26l1,1l1,37l1,1l0,13l1,1l1,24l1,1l0,10l1,1l0,9l1,1l0,9l1,1l0,9l1,1l0,8l1,1l0,8l1,1l1,14l-3,2l-3,0l-1,1l-3,0l-1,1l-3,0l-5,2l-4,0l-1,1l-3,0l-1,1l-3,0l-1,1l-3,0l-1,1l-3,0l-1,1l-3,0l-1,1l-3,0l-1,1l-3,0l-1,1l-3,0l-5,2l-4,0l-4,2l-3,0l-5,2l-4,0l-1,1l-3,0l-1,1l-3,0l-5,2l-4,0l-4,2l-3,0l-1,1l-3,0l-1,1l-3,0l-1,1l-3,0l-1,1l-3,0l-1,1l-3,0l-1,1l-3,0l-1,1l-3,0l-1,1l-3,0l-1,1l-3,0l-1,1l-3,0l-1,1l-3,0l-1,1l-3,0l-1,1l-7,1l-4,2l-3,0l-1,1l-3,0l-1,1l-3,0l-1,1l-3,0l-1,1l-3,0l-1,1l-5,1l-3,-6l-2,-2l0,-2l-3,-5l0,-2l-5,-13l-3,-15l-1,-1l0,-4l-2,-5l-1,-10l-1,-1l0,-4l-1,-1l0,-5l-1,-1l0,-6l-1,-1l-1,-13l-1,-1l0,-7l-1,-1l0,-7l-1,-1l0,-10l-1,-1l0,-10l-1,-1l0,-11l-1,-1l-1,-40l-1,-1l-1,-98l1,-1l0,-37l1,-1l0,-24l1,-1l1,-33l1,-1l0,-11l1,-1l1,-17l1,-1l0,-7l1,-1l0,-7l1,-1l0,-5l1,-1l1,-13l1,-1l0,-5l1,-1l0,-4l1,-1l2,-14l2,-5l0,-4l1,-1l2,-11l2,-4l0,-3l1,-1l0,-3l1,-1l2,-8l6,-10l4,0zm-413,-6l1,1l-1,1l0,4l-1,1l0,34l1,1l1,25l-21,8l-7,7l-18,27l-12,24l0,2l-3,5l0,2l-4,8l-1,5l-2,3l0,2l-4,10l0,3l-2,4l0,3l-2,4l-2,11l-1,1l0,4l-1,1l0,4l-1,1l0,4l-1,1l0,5l-1,1l0,5l-1,1l-1,14l-1,1l0,11l-1,1l0,40l1,1l0,11l1,1l0,8l1,1l1,13l1,1l0,5l1,1l0,4l1,1l0,4l1,1l0,4l1,1l1,7l2,4l0,3l3,8l0,3l1,1l3,11l2,3l1,5l2,3l2,7l4,7l0,2l3,6l2,2l4,9l21,31l7,6l2,0l8,4l2,0l4,2l3,0l1,1l-1,22l-1,1l0,38l1,1l0,3l-2,1l-8,-4l-2,0l-7,-4l-2,0l-4,-3l-13,-6l-10,-7l-3,-1l-12,-10l-1,0l-17,-18l-2,-4l-7,-9l-5,-10l-2,-2l-10,-20l0,-2l-3,-5l0,-2l-6,-13l-1,-5l-2,-3l0,-2l-8,-22l0,-3l-3,-7l0,-3l-2,-4l0,-3l-1,-1l0,-3l-1,-1l0,-3l-1,-1l0,-3l-2,-5l0,-4l-1,-1l0,-4l-1,-1l0,-5l-1,-1l0,-4l-1,-1l0,-5l-1,-1l0,-5l-1,-1l-1,-15l-1,-1l0,-7l-1,-1l-1,-24l1,-1l0,-12l1,-1l0,-8l1,-1l0,-7l1,-1l0,-5l1,-1l0,-6l1,-1l0,-4l1,-1l0,-5l1,-1l0,-4l1,-1l2,-14l1,-1l0,-3l1,-1l0,-3l1,-1l3,-15l2,-4l0,-3l3,-7l0,-3l3,-7l0,-3l1,-1l3,-11l2,-3l2,-8l2,-3l0,-2l2,-3l0,-2l2,-3l2,-7l3,-5l0,-2l8,-16l2,-2l5,-10l13,-18l18,-17l23,-15l16,-8l2,0l5,-3l2,0l5,-3l4,-1zm898,-1l1,-1l5,0l1,1l21,0l1,1l29,1l1,1l22,1l1,1l19,1l1,1l8,0l1,1l8,0l1,1l8,0l1,1l6,0l1,1l6,0l1,1l7,0l1,1l4,0l4,3l2,0l3,2l2,0l3,2l7,2l5,3l-2,2l-4,0l-1,1l-14,1l-1,1l-6,0l-1,1l-7,0l-1,1l-6,0l-1,1l-9,0l-1,1l-8,0l-1,1l-19,1l-1,1l-24,1l-1,1l-17,0l-1,1l-19,0l-1,1l-27,0l-2,-2l0,-6l-1,-1l0,-5l-1,-1l0,-5l-1,-1l0,-5l-1,-1l0,-5l-1,-1l0,-6l-1,-2zm-3,-1l2,5l0,5l1,1l0,5l1,1l0,5l1,1l0,5l1,1l0,6l1,1l0,4l1,1l-1,1l-11,0l-1,1l-25,0l-2,-3l0,-3l-1,-1l0,-3l-2,-5l0,-4l-1,-1l0,-3l-2,-5l0,-4l-2,-5l0,-4l1,-1l27,0l1,-1l11,0zm-439,0l1,-1l394,0l1,1l0,3l1,1l0,3l2,5l0,4l1,1l0,3l2,5l0,4l1,1l0,3l1,1l0,3l2,5l-1,1l-24,0l-1,1l-79,0l-1,-1l-31,0l-1,-1l-21,0l-1,-1l-15,0l-1,-1l-22,-1l-1,-1l-16,-1l-1,-1l-6,0l-1,-1l-7,0l-1,-1l-13,-1l-1,-1l-5,0l-1,-1l-6,0l-1,-1l-4,0l-1,-1l-6,0l-1,-1l-4,0l-1,-1l-4,0l-1,-1l-5,0l-1,-1l-4,0l-1,-1l-4,0l-1,-1l-4,0l-1,-1l-5,0l-1,-1l-4,0l-1,-1l-4,0l-1,-1l-4,0l-1,-1l-5,0l-1,-1l-4,0l-1,-1l-4,0l-1,-1l-4,0l-1,-1l-4,0l-1,-1l-14,-2l-1,-1l-3,0l-1,-1l-3,0l-5,-2l-4,0l-5,-2l-4,0l-1,-1l-3,0l-1,-1l-3,0l-5,-2l-4,0l-1,-1zm-41,5l6,-3l6,-1l1,-1l14,-1l1,1l4,0l1,1l3,0l1,1l3,0l1,1l3,0l1,1l3,0l5,2l4,0l1,1l3,0l1,1l3,0l5,2l14,2l5,2l4,0l1,1l4,0l1,1l4,0l1,1l4,0l1,1l4,0l1,1l4,0l1,1l4,0l1,1l4,0l1,1l4,0l1,1l4,0l1,1l4,0l1,1l5,0l1,1l5,0l1,1l4,0l1,1l4,0l1,1l5,0l1,1l4,0l1,1l17,2l1,1l6,0l1,1l12,1l1,1l7,0l1,1l6,0l1,1l7,0l1,1l18,1l1,1l25,1l1,1l18,0l1,1l24,0l1,1l110,0l1,-1l48,0l1,-1l38,0l1,-1l17,0l1,-1l14,0l1,-1l25,-1l1,-1l19,-1l1,-1l8,0l1,-1l6,0l1,-1l8,0l1,-1l6,0l1,-1l15,-1l1,-1l5,0l1,-1l6,-1l2,-2l-2,-3l-16,-7l1,-1l7,0l1,1l15,1l1,1l5,0l1,1l5,0l1,1l6,0l1,1l5,0l1,1l5,0l1,1l17,2l1,1l10,1l1,1l4,0l1,1l5,0l5,2l5,0l5,2l4,0l5,2l4,0l1,1l7,1l4,2l3,0l1,1l7,1l4,2l3,0l4,2l3,0l1,1l14,4l3,2l2,0l3,2l2,0l12,6l4,1l4,3l-1,1l-218,0l1,12l1,1l1,12l1,1l0,6l1,1l1,15l1,1l0,8l1,1l0,8l1,1l0,9l1,1l0,9l1,1l0,10l1,1l1,26l1,1l0,18l1,1l0,20l1,1l0,40l1,1l-1,1l0,4l1,1l-1,2l0,34l-1,1l0,19l-1,1l-1,31l-1,1l0,11l-1,1l0,10l-1,1l0,9l-1,1l0,10l-1,1l-1,16l-1,1l0,7l-1,1l0,7l-1,1l-1,13l-1,1l0,5l-1,1l-1,13l218,0l1,1l-7,4l-2,0l-5,3l-2,0l-13,6l-2,0l-16,6l-3,0l-4,2l-3,0l-4,2l-7,1l-4,2l-3,0l-1,1l-3,0l-5,2l-4,0l-5,2l-4,0l-5,2l-4,0l-1,1l-4,0l-1,1l-4,0l-1,1l-4,0l-1,1l-5,0l-1,1l-5,0l-1,1l-5,0l-1,1l-5,0l-1,1l-5,0l-1,1l-5,0l-1,1l-20,2l-1,1l-7,0l-1,1l-13,1l-1,1l-3,0l-1,-1l16,-6l2,-2l0,-2l-5,-3l-4,0l-1,-1l-4,0l-1,-1l-6,0l-1,-1l-6,0l-1,-1l-14,-1l-1,-1l-16,-1l-1,-1l-9,0l-1,-1l-9,0l-1,-1l-10,0l-1,-1l-28,-1l-1,-1l-22,0l-1,-1l-37,0l-1,-1l-40,0l-1,-1l-62,0l-1,-1l-22,0l-1,1l-33,0l-1,1l-44,1l-1,1l-13,0l-1,1l-20,1l-1,1l-8,0l-1,1l-6,0l-1,1l-15,1l-1,1l-12,1l-1,1l-5,0l-1,1l-6,0l-1,1l-5,0l-1,1l-4,0l-1,1l-5,0l-1,1l-17,2l-1,1l-4,0l-1,1l-11,1l-1,1l-10,1l-1,1l-4,0l-1,1l-4,0l-1,1l-5,0l-5,2l-4,0l-1,1l-4,0l-5,2l-4,0l-1,1l-14,2l-1,1l-3,0l-5,2l-14,2l-1,1l-3,0l-1,1l-3,0l-5,2l-4,0l-1,1l-4,0l-1,1l-11,-1l-1,-1l-6,-1l-5,-2l-1,-1l2,-2l7,-1l4,-2l4,0l4,-2l3,0l1,-1l3,0l1,-1l3,0l1,-1l15,-3l4,-2l3,0l1,-1l3,0l1,-1l3,0l1,-1l3,0l1,-1l3,0l1,-1l3,0l1,-1l3,0l1,-1l3,0l5,-2l4,0l1,-1l3,0l1,-1l11,-2l4,-2l4,0l1,-1l3,0l1,-1l3,0l1,-1l3,0l1,-1l3,0l1,-1l3,0l1,-1l3,0l1,-1l3,0l5,-2l4,0l1,-1l3,0l1,-1l3,0l1,-1l3,0l1,-1l3,0l1,-1l3,0l5,-2l4,0l4,-2l-1,-2l-1,-16l-1,-1l-1,-17l-1,-1l-1,-20l-1,-1l0,-10l-1,-1l0,-10l-1,-1l0,-11l-1,-1l0,-11l-1,-1l-1,-31l-1,-1l0,-21l-1,-1l0,-35l-1,-1l1,-75l1,-1l1,-37l1,-1l1,-26l1,-1l1,-22l1,-1l0,-10l1,-1l0,-8l1,-1l0,-9l1,-1l0,-9l1,-1l0,-10l1,-1l0,-8l1,-1l1,-18l-1,-1l-3,0l-5,-2l-4,0l-1,-1l-3,0l-1,-1l-3,0l-1,-1l-3,0l-1,-1l-3,0l-1,-1l-3,0l-1,-1l-3,0l-5,-2l-8,-1l-4,-2l-3,0l-1,-1l-3,0l-1,-1l-3,0l-1,-1l-3,0l-5,-2l-4,0l-1,-1l-3,0l-1,-1l-15,-3l-4,-2l-4,0l-1,-1l-11,-2l-4,-2l-3,0l-1,-1l-3,0l-1,-1l-3,0l-1,-1l-15,-3l-4,-2l-3,0l-1,-1l-3,0l-5,-2l-4,0l-1,-1l-15,-3l-1,-2zm-409,-35l1,2l-1,1l0,3l-2,5l0,4l-1,1l-1,12l-4,3l-2,0l-3,2l-7,2l-9,5l-2,0l-4,2l-2,2l-14,7l-13,9l-11,10l-1,0l-9,10l-16,24l-10,20l0,2l-4,7l0,2l-4,8l0,2l-3,6l-2,8l-2,3l0,3l-1,1l-2,8l-2,3l-2,10l-3,7l-1,7l-2,4l0,3l-1,1l0,3l-1,1l0,3l-2,5l0,4l-1,1l0,4l-2,5l-1,10l-1,1l0,4l-1,1l-1,12l-1,1l0,5l-1,1l0,7l-1,1l-1,21l-1,1l0,5l1,1l0,16l1,1l0,9l1,1l1,15l1,1l2,17l1,1l1,9l1,1l1,8l2,5l0,4l2,4l0,3l4,11l2,10l1,1l6,20l2,3l2,8l3,5l0,2l5,10l0,2l11,22l17,26l6,6l0,1l13,12l7,4l6,5l15,8l2,2l6,3l2,0l11,6l2,0l3,2l2,0l7,3l3,20l3,6l0,2l-1,1l-2,0l-1,-1l-3,0l-10,-4l-3,0l-1,-1l-26,-8l-3,-2l-2,0l-3,-2l-7,-2l-25,-12l-2,-2l-5,-2l-5,-4l-3,-1l-25,-18l-14,-13l-1,0l-19,-20l0,-1l-11,-13l-12,-18l-4,-8l-2,-2l-12,-24l0,-2l-4,-7l0,-2l-3,-5l-1,-5l-2,-3l0,-2l-8,-22l0,-3l-2,-4l0,-3l-1,-1l0,-3l-2,-5l0,-4l-1,-1l0,-4l-1,-1l-1,-12l-1,-1l0,-6l-1,-1l-1,-24l-1,-1l0,-39l1,-1l0,-12l1,-1l1,-17l1,-1l0,-6l1,-1l0,-5l1,-1l1,-10l1,-1l3,-15l2,-4l0,-3l1,-1l7,-23l2,-3l2,-7l3,-5l2,-7l12,-24l2,-2l2,-5l4,-5l1,-3l8,-12l13,-16l0,-1l32,-31l1,0l12,-10l12,-8l8,-4l2,-2l19,-10l2,0l2,-2l2,0l5,-3l2,0l13,-6l14,-4l3,-2l2,0l13,-5l3,0l1,-1l10,-2l1,-1zm1433,-17l1,1l20,0l1,1l8,0l1,1l3,0l1,1l3,0l1,1l3,0l3,2l2,0l6,3l6,5l5,8l1,7l1,1l1,21l1,1l0,13l1,1l0,13l1,1l0,14l1,1l0,16l1,1l1,32l1,1l1,39l1,1l0,23l1,1l0,27l1,1l-1,2l1,1l0,44l1,1l0,72l-1,1l0,45l-1,1l0,25l-1,1l0,24l-1,1l0,21l-1,1l-1,35l-1,1l0,15l-1,1l0,15l-1,1l0,13l-1,1l-1,27l-1,1l0,11l-1,1l0,8l-1,1l0,3l-5,9l-4,4l-16,8l-8,1l-1,1l-7,0l-1,1l-18,0l-1,1l-18,0l-1,1l-2,0l-1,-1l0,-9l5,-11l0,-2l5,-9l2,-7l3,-5l0,-2l6,-13l0,-3l1,-1l25,0l0,-5l1,-1l0,-31l1,-1l0,-37l1,-1l0,-37l1,-1l0,-38l1,-1l0,-62l1,-1l0,-83l-1,-1l0,-48l-1,-1l0,-43l-1,-1l0,-39l-1,-1l-1,-69l-1,-1l0,-9l-1,-1l-23,0l-2,-2l0,-2l-3,-6l-3,-10l-4,-7l0,-2l-4,-7l0,-2l-6,-12l0,-2l-1,-1l0,-8l1,-1l17,0zm-73,-1l1,-1l1,1l50,1l1,1l0,7l1,1l1,5l6,12l0,2l4,7l0,2l3,5l0,2l4,8l3,10l-1,1l-1,-1l-1,1l-28,-1l-22,-33l-6,-7l-4,-7l-4,-4l-8,-12zm-907,-1l1,-1l421,0l1,1l0,3l-1,1l0,5l-1,1l-1,5l-11,17l-15,14l-377,0l-4,-8l-8,-26l-2,-3l-1,-6l-2,-3zm14,45l-1,1l-39,0l-1,1l-5,0l-1,1l-8,2l-3,2l-2,0l-2,2l-3,1l-6,10l-74,1l-1,1l-20,0l-1,1l-29,1l-1,1l-23,1l-1,1l-9,0l-1,1l-8,0l-1,1l-9,0l-1,1l-18,1l-1,1l-7,0l-1,1l-6,0l-1,1l-8,0l-1,1l-5,0l-1,1l-7,0l-1,1l-6,0l-1,1l-14,1l-1,1l-12,1l-1,1l-6,0l-1,1l-5,0l-1,1l-4,0l-1,1l-5,0l-1,1l-4,0l-1,1l-4,0l-1,1l-14,2l-1,1l-3,0l-5,2l-4,0l-1,1l-3,0l-1,1l-3,0l-1,1l-3,0l-1,1l-3,0l-1,1l-15,3l-4,2l-7,1l-1,1l-2,0l-4,2l-3,0l-7,3l-3,0l-1,1l-2,0l-1,-1l-1,-20l-1,-1l0,-34l1,-1l1,-13l2,-2l2,0l13,-5l3,0l7,-3l11,-2l1,-1l10,-2l1,-1l4,0l1,-1l4,0l1,-1l4,0l1,-1l4,0l1,-1l4,0l1,-1l4,0l1,-1l18,-2l1,-1l14,-1l1,-1l6,0l1,-1l6,0l1,-1l6,0l1,-1l7,0l1,-1l7,0l1,-1l7,0l1,-1l8,0l1,-1l8,0l1,-1l8,0l1,-1l15,-1l1,-1l18,-1l1,-1l9,0l1,-1l17,-1l1,-1l9,0l1,-1l14,-1l1,-1l7,0l1,-1l171,0l2,2l4,15l2,3l7,23l2,3zm-198,-47l-1,1l-7,0l-1,1l-7,0l-1,1l-8,0l-1,1l-9,0l-1,1l-8,0l-1,1l-8,0l-1,1l-8,0l-1,1l-9,0l-1,1l-17,1l-1,1l-16,1l-1,1l-7,0l-1,1l-7,0l-1,1l-7,0l-1,1l-7,0l-1,1l-7,0l-1,1l-6,0l-1,1l-20,2l-1,1l-5,0l-1,1l-5,0l-1,1l-5,0l-1,1l-5,0l-1,1l-14,2l-1,1l-3,0l-1,1l-3,0l-1,1l-8,1l-8,3l-3,0l-7,3l-3,0l-7,3l-6,1l-3,2l-2,0l-1,-1l1,-1l0,-6l1,-1l2,-11l3,-4l2,0l7,-3l8,-1l1,-1l4,0l1,-1l4,0l1,-1l4,0l1,-1l4,0l1,-1l5,0l1,-1l5,0l1,-1l5,0l1,-1l5,0l1,-1l5,0l1,-1l7,0l1,-1l7,0l1,-1l7,0l1,-1l8,0l1,-1l10,0l1,-1l26,-1l1,-1l18,0l1,-1l91,0l1,1l13,0l1,1zm580,49l13,-12l0,-1l7,-8l6,-11l1,-6l1,-1l0,-5l2,-4l3,0l1,-1l7,0l1,-1l6,0l1,-1l5,0l1,-1l4,0l1,-1l4,0l1,-1l14,-2l5,-2l4,0l5,-2l12,-1l1,-1l11,-1l1,-1l16,-1l1,-1l20,-1l1,-1l12,0l1,-1l13,0l1,-1l14,0l1,-1l63,-1l1,1l24,0l1,1l10,0l1,1l8,0l1,1l8,0l1,1l5,0l1,1l6,0l1,1l4,0l1,1l3,0l5,2l4,0l1,1l7,1l3,2l2,0l7,3l8,0l1,1l30,1l1,1l16,0l1,1l21,0l1,1l17,0l1,1l18,0l1,1l25,1l22,29l23,35l-1,1l-1,-1l-6,0l-1,1l-4,0l-1,-1l-49,0l-1,1l-25,0l-18,22l-10,14l-5,5l-7,10l-23,-12l-2,0l-8,-4l-2,0l-22,-8l-3,0l-11,-4l-3,0l-8,-3l-8,-1l-1,-1l-3,0l-1,-1l-3,0l-5,-2l-4,0l-1,-1l-4,0l-1,-1l-4,0l-1,-1l-4,0l-1,-1l-5,0l-1,-1l-5,0l-1,-1l-4,0l-1,-1l-11,-1l-1,-1l-6,0l-1,-1l-5,0l-1,-1l-5,0l-1,-1l-6,0l-1,-1l-6,0l-1,-1l-12,-1l-1,-1l-7,0l-1,-1l-7,0l-1,-1l-7,0l-1,-1l-6,0l-1,-1l-6,0l-1,-1l-6,0l-1,-1l-15,-1l-1,-1l-6,0l-1,-1l-9,0l-1,-1l-19,-1l-1,-1l-24,-1l-1,-1l-12,0l-1,-1l-13,0l-1,-1l-23,0l-1,-1l-40,0l-1,1l-9,0l-1,-1z"/>
  </g>
  <path id="svg_7" d="m83.15377,73.76925" opacity="NaN" stroke="null" fill="none"/>
 </g>
</svg>