<svg xmlns="http://www.w3.org/2000/svg" width="1886" height="834" viewBox="0 0 1886 834">
<rect width="100%" height="100%" fill="white"/>
<g fill="black" fill-rule="evenodd" stroke="none">
<path d="M 1788 104 L 1785 97 L 1781 93 L 1781 92 L 1771 85 L 1767 84 L 1764 82 L 1761 82 L 1756 80 L 1752 80 L 1751 79 L 1745 79 L 1744 78 L 1657 76 L 1656 75 L 1637 75 L 1636 74 L 1622 74 L 1621 73 L 1603 73 L 1602 72 L 1584 72 L 1583 71 L 1564 71 L 1563 70 L 1545 70 L 1544 69 L 1513 68 L 1512 67 L 1505 67 L 1494 63 L 1484 61 L 1480 59 L 1476 59 L 1475 58 L 1471 58 L 1470 57 L 1466 57 L 1465 56 L 1453 55 L 1452 54 L 1446 54 L 1445 53 L 1437 53 L 1436 52 L 1406 51 L 1405 50 L 1360 50 L 1359 51 L 1333 51 L 1332 52 L 1317 52 L 1316 53 L 1305 53 L 1304 54 L 1282 55 L 1281 56 L 1263 57 L 1262 58 L 1255 58 L 1254 59 L 1248 59 L 1247 60 L 1230 62 L 1225 64 L 1220 64 L 1219 65 L 1215 65 L 1214 66 L 1210 66 L 1205 68 L 1201 68 L 1200 69 L 1196 69 L 1195 70 L 1191 70 L 1190 71 L 1185 71 L 1184 72 L 1178 72 L 1177 73 L 1162 73 L 1161 74 L 1045 74 L 1044 73 L 1032 73 L 1031 74 L 1010 74 L 1009 73 L 968 73 L 967 74 L 909 74 L 908 73 L 904 73 L 903 74 L 899 74 L 898 73 L 896 74 L 894 74 L 893 73 L 887 73 L 886 74 L 837 74 L 836 73 L 825 73 L 824 74 L 800 74 L 799 73 L 742 73 L 741 74 L 696 74 L 695 73 L 694 74 L 692 73 L 662 74 L 661 73 L 628 73 L 627 74 L 610 74 L 609 73 L 596 73 L 595 74 L 586 74 L 585 73 L 582 73 L 581 74 L 577 74 L 576 73 L 543 72 L 542 71 L 478 70 L 477 71 L 448 71 L 447 72 L 429 72 L 428 73 L 414 73 L 413 74 L 402 74 L 401 75 L 393 75 L 392 76 L 383 76 L 382 77 L 375 77 L 374 78 L 354 80 L 353 81 L 348 81 L 347 82 L 330 84 L 329 85 L 325 85 L 324 86 L 319 86 L 314 88 L 309 88 L 308 89 L 301 90 L 295 93 L 291 93 L 290 94 L 279 96 L 278 97 L 276 97 L 263 102 L 260 102 L 257 104 L 254 104 L 253 105 L 248 106 L 245 108 L 240 109 L 237 111 L 235 111 L 232 113 L 225 115 L 216 120 L 214 120 L 188 134 L 166 149 L 162 153 L 156 157 L 145 168 L 144 168 L 123 191 L 106 215 L 105 218 L 97 230 L 84 256 L 84 258 L 81 263 L 81 265 L 77 273 L 77 275 L 76 276 L 76 278 L 75 279 L 73 287 L 71 290 L 70 296 L 67 303 L 67 306 L 65 310 L 65 313 L 63 318 L 63 322 L 61 327 L 61 331 L 60 332 L 59 344 L 58 345 L 58 351 L 57 352 L 57 361 L 56 362 L 56 374 L 55 375 L 55 424 L 56 425 L 56 437 L 57 438 L 57 446 L 58 447 L 58 453 L 59 454 L 60 465 L 61 466 L 61 469 L 62 470 L 63 478 L 64 479 L 65 486 L 67 490 L 67 493 L 68 494 L 68 496 L 70 500 L 70 503 L 71 504 L 72 509 L 74 512 L 76 520 L 84 537 L 84 539 L 97 565 L 107 580 L 108 583 L 126 607 L 132 613 L 132 614 L 157 638 L 158 638 L 174 651 L 194 664 L 219 677 L 221 677 L 233 683 L 238 684 L 241 686 L 243 686 L 244 687 L 246 687 L 247 688 L 249 688 L 250 689 L 252 689 L 274 697 L 284 699 L 288 701 L 294 701 L 295 702 L 297 702 L 301 704 L 304 704 L 305 705 L 308 705 L 309 706 L 313 706 L 318 708 L 322 708 L 323 709 L 327 709 L 328 710 L 332 710 L 333 711 L 338 711 L 339 712 L 343 712 L 344 713 L 349 713 L 350 714 L 356 714 L 357 715 L 363 715 L 364 716 L 370 716 L 371 717 L 378 717 L 379 718 L 386 718 L 387 719 L 395 719 L 396 720 L 405 720 L 406 721 L 431 722 L 432 723 L 456 723 L 457 724 L 535 724 L 536 723 L 555 723 L 556 722 L 571 722 L 572 721 L 1175 721 L 1176 722 L 1189 723 L 1190 724 L 1194 724 L 1195 725 L 1209 727 L 1210 728 L 1213 728 L 1218 730 L 1222 730 L 1227 732 L 1231 732 L 1232 733 L 1241 734 L 1242 735 L 1246 735 L 1247 736 L 1252 736 L 1253 737 L 1260 737 L 1261 738 L 1268 738 L 1269 739 L 1277 739 L 1278 740 L 1287 740 L 1288 741 L 1312 742 L 1313 743 L 1328 743 L 1329 744 L 1358 744 L 1359 745 L 1392 745 L 1393 744 L 1416 744 L 1417 743 L 1440 742 L 1441 741 L 1456 740 L 1457 739 L 1461 739 L 1462 738 L 1467 738 L 1468 737 L 1477 736 L 1478 735 L 1485 734 L 1489 732 L 1492 732 L 1502 728 L 1508 728 L 1509 727 L 1542 726 L 1543 725 L 1559 725 L 1560 724 L 1581 724 L 1582 723 L 1605 723 L 1606 722 L 1623 722 L 1624 721 L 1638 721 L 1639 720 L 1673 720 L 1674 719 L 1711 719 L 1712 718 L 1732 718 L 1733 717 L 1747 717 L 1748 716 L 1758 715 L 1759 714 L 1762 714 L 1765 712 L 1767 712 L 1778 706 L 1785 698 L 1789 688 L 1790 670 L 1791 669 L 1791 656 L 1792 655 L 1792 642 L 1793 641 L 1793 628 L 1794 627 L 1794 614 L 1795 613 L 1795 597 L 1796 596 L 1796 581 L 1797 580 L 1797 562 L 1798 561 L 1798 543 L 1799 542 L 1800 492 L 1801 491 L 1801 454 L 1802 453 L 1802 346 L 1801 345 L 1801 310 L 1800 309 L 1800 281 L 1799 280 L 1798 238 L 1797 237 L 1797 221 L 1796 220 L 1796 204 L 1795 203 L 1795 187 L 1794 186 L 1793 156 L 1792 155 L 1792 143 L 1791 142 L 1790 117 L 1789 116 Z M 288 698 L 289 697 L 290 698 L 289 699 Z M 286 676 L 288 675 L 307 682 L 310 682 L 311 683 L 317 684 L 325 687 L 329 687 L 334 689 L 338 689 L 339 690 L 343 690 L 348 692 L 353 692 L 354 693 L 358 693 L 359 694 L 363 694 L 364 695 L 375 696 L 376 697 L 382 697 L 383 698 L 389 698 L 390 699 L 402 700 L 403 701 L 410 701 L 411 702 L 417 702 L 418 703 L 424 703 L 425 704 L 432 704 L 433 705 L 441 705 L 442 706 L 449 706 L 450 707 L 457 707 L 458 708 L 466 708 L 467 709 L 474 709 L 475 710 L 484 710 L 485 711 L 493 711 L 494 712 L 512 713 L 513 714 L 529 715 L 530 716 L 537 716 L 538 717 L 545 717 L 546 718 L 554 718 L 555 719 L 554 720 L 548 720 L 547 721 L 526 721 L 525 722 L 464 722 L 463 721 L 436 721 L 435 720 L 408 719 L 407 718 L 398 718 L 397 717 L 389 717 L 388 716 L 381 716 L 380 715 L 374 715 L 373 714 L 359 713 L 358 712 L 353 712 L 352 711 L 347 711 L 346 710 L 341 710 L 340 709 L 335 709 L 334 708 L 330 708 L 329 707 L 325 707 L 324 706 L 310 704 L 309 703 L 302 702 L 299 700 L 293 699 L 291 697 L 288 689 L 288 685 L 287 684 L 287 679 L 286 678 Z M 742 716 L 744 712 L 744 709 L 745 708 L 751 688 L 753 685 L 753 683 L 756 676 L 756 673 L 758 671 L 1135 671 L 1148 683 L 1148 684 L 1155 692 L 1160 701 L 1160 703 L 1162 706 L 1162 709 L 1163 710 L 1163 718 L 1162 719 L 743 719 L 742 718 Z M 1723 655 L 1718 666 L 1718 668 L 1716 671 L 1716 673 L 1713 678 L 1713 680 L 1710 685 L 1710 687 L 1703 701 L 1703 703 L 1701 707 L 1701 716 L 1700 717 L 1666 717 L 1665 718 L 1649 718 L 1648 717 L 1666 693 L 1690 657 L 1693 654 L 1722 654 Z M 1180 667 L 1181 665 L 1181 660 L 1182 659 L 1182 653 L 1183 652 L 1184 641 L 1185 640 L 1185 635 L 1186 634 L 1186 628 L 1187 627 L 1237 628 L 1238 629 L 1254 629 L 1255 630 L 1268 630 L 1269 631 L 1291 632 L 1292 633 L 1310 634 L 1311 635 L 1318 635 L 1319 636 L 1326 636 L 1327 637 L 1347 639 L 1348 640 L 1357 641 L 1361 643 L 1356 646 L 1343 650 L 1335 654 L 1326 655 L 1325 656 L 1318 656 L 1317 657 L 1310 657 L 1309 658 L 1301 658 L 1300 659 L 1292 659 L 1291 660 L 1282 660 L 1281 661 L 1272 661 L 1271 662 L 1262 662 L 1261 663 L 1238 664 L 1237 665 L 1204 666 L 1203 667 L 1182 667 L 1181 668 Z M 1146 626 L 1181 626 L 1184 628 L 1183 639 L 1182 640 L 1182 645 L 1181 646 L 1181 651 L 1180 652 L 1180 657 L 1179 658 L 1179 663 L 1177 668 L 1176 667 L 1138 667 L 1137 666 L 1138 658 L 1140 653 L 1140 649 L 1141 648 L 1141 645 L 1143 640 L 1143 636 L 1145 631 L 1145 627 Z M 1144 627 L 1142 631 L 1141 639 L 1140 640 L 1140 643 L 1139 644 L 1139 647 L 1137 652 L 1137 656 L 1136 657 L 1135 664 L 1133 668 L 1082 668 L 1081 669 L 1065 669 L 1064 668 L 891 668 L 890 669 L 885 669 L 884 668 L 882 669 L 880 669 L 879 668 L 874 668 L 873 669 L 834 669 L 833 668 L 823 668 L 822 669 L 737 669 L 736 668 L 737 667 L 741 667 L 746 665 L 755 664 L 760 662 L 764 662 L 769 660 L 773 660 L 778 658 L 782 658 L 787 656 L 791 656 L 792 655 L 796 655 L 797 654 L 801 654 L 802 653 L 806 653 L 807 652 L 811 652 L 812 651 L 816 651 L 817 650 L 822 650 L 823 649 L 827 649 L 828 648 L 833 648 L 834 647 L 838 647 L 839 646 L 844 646 L 845 645 L 849 645 L 850 644 L 856 644 L 857 643 L 861 643 L 862 642 L 867 642 L 868 641 L 872 641 L 873 640 L 885 639 L 886 638 L 891 638 L 892 637 L 897 637 L 898 636 L 905 636 L 906 635 L 912 635 L 913 634 L 919 634 L 920 633 L 926 633 L 927 632 L 934 632 L 935 631 L 943 631 L 944 630 L 965 629 L 966 628 L 980 628 L 981 627 L 1000 627 L 1001 626 L 1027 626 L 1028 625 L 1133 625 L 1134 626 L 1143 626 Z M 1689 655 L 1677 672 L 1676 675 L 1673 678 L 1669 685 L 1666 688 L 1664 692 L 1661 695 L 1659 699 L 1656 702 L 1654 706 L 1645 718 L 1637 718 L 1636 719 L 1620 719 L 1619 720 L 1601 720 L 1600 721 L 1578 721 L 1577 722 L 1555 722 L 1554 723 L 1536 723 L 1535 724 L 1521 724 L 1520 725 L 1505 725 L 1504 726 L 1501 726 L 1491 730 L 1484 731 L 1480 733 L 1472 734 L 1471 735 L 1467 735 L 1466 736 L 1462 736 L 1461 737 L 1456 737 L 1455 738 L 1447 738 L 1446 739 L 1439 739 L 1438 740 L 1428 740 L 1427 741 L 1388 742 L 1387 743 L 1335 742 L 1334 741 L 1316 741 L 1315 740 L 1302 740 L 1301 739 L 1291 739 L 1290 738 L 1279 738 L 1278 737 L 1270 737 L 1269 736 L 1262 736 L 1261 735 L 1255 735 L 1254 734 L 1243 733 L 1242 732 L 1233 731 L 1228 729 L 1224 729 L 1223 728 L 1215 727 L 1214 726 L 1206 725 L 1205 724 L 1197 723 L 1196 722 L 1191 722 L 1190 721 L 1185 721 L 1184 720 L 1178 720 L 1177 719 L 1166 719 L 1165 718 L 1165 711 L 1164 710 L 1164 707 L 1160 697 L 1152 685 L 1145 678 L 1145 677 L 1144 677 L 1138 671 L 1139 670 L 1187 670 L 1188 669 L 1211 669 L 1212 668 L 1227 668 L 1228 667 L 1252 666 L 1253 665 L 1263 665 L 1264 664 L 1274 664 L 1275 663 L 1284 663 L 1285 662 L 1294 662 L 1295 661 L 1312 660 L 1313 659 L 1319 659 L 1320 658 L 1327 658 L 1328 657 L 1334 657 L 1335 656 L 1342 656 L 1343 655 L 1358 654 L 1359 653 L 1365 653 L 1366 652 L 1372 652 L 1373 651 L 1379 651 L 1380 650 L 1400 648 L 1401 647 L 1406 647 L 1407 646 L 1413 646 L 1414 645 L 1419 645 L 1420 644 L 1430 643 L 1431 642 L 1440 641 L 1445 639 L 1450 639 L 1451 638 L 1455 638 L 1460 636 L 1464 636 L 1465 635 L 1468 635 L 1469 634 L 1484 631 L 1488 629 L 1495 628 L 1502 625 L 1505 625 L 1506 624 L 1523 619 L 1526 617 L 1531 616 L 1534 614 L 1536 614 L 1541 611 L 1545 610 L 1547 608 L 1555 604 L 1557 604 L 1558 605 L 1557 604 L 1559 602 L 1561 603 L 1567 612 L 1571 616 L 1580 629 L 1584 633 L 1587 638 L 1600 654 L 1688 654 Z M 285 602 L 286 601 L 287 602 L 293 603 L 297 605 L 300 605 L 304 607 L 307 607 L 308 608 L 311 608 L 312 609 L 315 609 L 316 610 L 319 610 L 324 612 L 328 612 L 329 613 L 332 613 L 333 614 L 336 614 L 337 615 L 340 615 L 345 617 L 349 617 L 350 618 L 359 619 L 364 621 L 368 621 L 369 622 L 374 622 L 375 623 L 379 623 L 380 624 L 384 624 L 385 625 L 390 625 L 391 626 L 401 627 L 402 628 L 408 628 L 409 629 L 414 629 L 415 630 L 421 630 L 422 631 L 427 631 L 428 632 L 435 632 L 436 633 L 450 634 L 451 635 L 458 635 L 459 636 L 466 636 L 467 637 L 475 637 L 476 638 L 492 639 L 493 640 L 502 640 L 503 641 L 512 641 L 513 642 L 521 642 L 522 643 L 531 643 L 532 644 L 540 644 L 541 645 L 562 646 L 563 647 L 589 648 L 590 649 L 624 650 L 625 651 L 683 651 L 685 653 L 685 655 L 690 663 L 692 663 L 699 667 L 701 667 L 705 669 L 714 670 L 715 671 L 754 671 L 755 672 L 754 673 L 749 690 L 747 693 L 747 695 L 743 705 L 743 708 L 740 715 L 740 718 L 739 719 L 569 719 L 568 718 L 562 718 L 561 717 L 555 717 L 554 716 L 548 716 L 547 715 L 541 715 L 540 714 L 532 714 L 531 713 L 524 713 L 523 712 L 506 711 L 505 710 L 489 709 L 488 708 L 481 708 L 480 707 L 471 707 L 470 706 L 452 705 L 451 704 L 444 704 L 443 703 L 428 702 L 427 701 L 421 701 L 420 700 L 414 700 L 413 699 L 406 699 L 405 698 L 399 698 L 398 697 L 391 697 L 390 696 L 385 696 L 384 695 L 379 695 L 378 694 L 373 694 L 372 693 L 360 692 L 359 691 L 355 691 L 350 689 L 345 689 L 344 688 L 340 688 L 335 686 L 331 686 L 330 685 L 327 685 L 326 684 L 311 681 L 295 675 L 292 675 L 289 673 L 286 673 L 285 672 L 284 662 L 283 661 L 283 642 L 282 641 L 283 639 L 283 621 L 284 620 L 284 612 L 285 611 Z M 1335 194 L 1554 194 L 1559 196 L 1559 200 L 1560 201 L 1560 214 L 1561 215 L 1561 229 L 1562 230 L 1562 245 L 1563 246 L 1564 288 L 1565 289 L 1565 315 L 1566 316 L 1567 425 L 1566 426 L 1566 478 L 1565 479 L 1564 533 L 1563 534 L 1563 551 L 1562 552 L 1562 568 L 1561 569 L 1560 596 L 1558 601 L 1557 600 L 1555 600 L 1554 601 L 1337 601 L 1336 600 L 1335 601 L 1334 600 L 1334 598 L 1335 597 L 1335 592 L 1336 591 L 1336 586 L 1337 585 L 1337 578 L 1338 577 L 1338 570 L 1339 569 L 1339 562 L 1340 561 L 1340 554 L 1341 553 L 1341 545 L 1342 544 L 1342 536 L 1343 535 L 1344 516 L 1345 515 L 1345 504 L 1346 503 L 1346 492 L 1347 491 L 1347 478 L 1348 477 L 1348 460 L 1349 459 L 1349 441 L 1350 440 L 1350 408 L 1351 407 L 1351 394 L 1350 393 L 1350 358 L 1349 357 L 1348 317 L 1347 316 L 1347 304 L 1346 303 L 1346 292 L 1345 291 L 1345 281 L 1344 280 L 1344 270 L 1343 269 L 1342 250 L 1341 249 L 1341 242 L 1340 241 L 1340 234 L 1339 233 L 1339 226 L 1338 225 L 1337 210 L 1336 209 L 1335 197 L 1334 196 Z M 645 145 L 682 145 L 683 146 L 680 153 L 679 160 L 677 164 L 677 167 L 676 168 L 676 171 L 675 172 L 675 175 L 673 180 L 673 184 L 672 185 L 672 189 L 671 190 L 671 194 L 670 195 L 670 199 L 669 200 L 669 204 L 668 205 L 668 211 L 667 212 L 667 217 L 666 218 L 666 223 L 665 224 L 665 230 L 664 231 L 664 238 L 663 239 L 663 246 L 662 247 L 662 255 L 661 256 L 661 266 L 660 267 L 659 291 L 658 292 L 657 330 L 656 331 L 656 365 L 655 366 L 656 368 L 656 372 L 655 373 L 655 438 L 656 439 L 656 474 L 657 475 L 657 497 L 658 498 L 658 509 L 659 510 L 659 522 L 660 523 L 661 546 L 662 547 L 663 563 L 664 564 L 664 570 L 665 571 L 665 577 L 666 578 L 666 584 L 667 585 L 667 589 L 668 590 L 669 601 L 670 602 L 670 606 L 672 611 L 672 615 L 673 616 L 675 627 L 676 628 L 677 634 L 682 647 L 681 649 L 644 649 L 643 648 L 643 644 L 642 643 L 641 636 L 638 628 L 638 624 L 637 623 L 637 620 L 635 615 L 634 605 L 633 604 L 633 600 L 632 599 L 632 595 L 631 594 L 631 588 L 630 587 L 629 574 L 628 573 L 628 566 L 627 565 L 627 557 L 626 556 L 625 532 L 624 531 L 624 510 L 623 509 L 623 302 L 624 301 L 624 277 L 625 276 L 625 261 L 626 260 L 627 239 L 628 238 L 628 230 L 629 229 L 629 221 L 630 220 L 630 214 L 631 213 L 631 208 L 632 207 L 632 201 L 633 200 L 633 195 L 634 194 L 634 189 L 635 188 L 636 179 L 638 174 L 638 170 L 639 169 L 639 166 L 640 165 L 640 162 L 641 161 L 641 158 L 643 154 L 644 146 Z M 642 145 L 643 146 L 640 153 L 640 156 L 639 157 L 639 160 L 638 161 L 638 164 L 636 169 L 635 178 L 633 183 L 632 192 L 631 193 L 631 199 L 630 200 L 630 205 L 629 206 L 629 211 L 628 212 L 628 219 L 627 220 L 627 227 L 626 228 L 626 235 L 625 236 L 624 255 L 623 256 L 622 291 L 621 292 L 622 293 L 621 294 L 621 444 L 620 445 L 620 460 L 621 461 L 621 464 L 620 465 L 621 466 L 620 468 L 620 473 L 621 474 L 621 517 L 622 518 L 622 536 L 623 537 L 624 559 L 625 560 L 626 575 L 627 576 L 627 582 L 628 583 L 628 589 L 629 590 L 629 595 L 630 596 L 630 600 L 631 601 L 632 611 L 633 612 L 634 620 L 635 621 L 635 624 L 636 625 L 636 628 L 638 633 L 639 641 L 642 648 L 641 649 L 633 649 L 632 648 L 611 648 L 610 647 L 595 647 L 594 646 L 581 646 L 580 645 L 557 644 L 556 643 L 546 643 L 545 642 L 535 642 L 534 641 L 524 641 L 523 640 L 515 640 L 514 639 L 506 639 L 505 638 L 496 638 L 495 637 L 479 636 L 478 635 L 462 634 L 461 633 L 454 633 L 453 632 L 446 632 L 445 631 L 439 631 L 438 630 L 432 630 L 431 629 L 417 628 L 416 627 L 411 627 L 410 626 L 404 626 L 403 625 L 399 625 L 398 624 L 387 623 L 386 622 L 382 622 L 381 621 L 377 621 L 376 620 L 371 620 L 366 618 L 362 618 L 361 617 L 352 616 L 347 614 L 338 613 L 337 612 L 334 612 L 333 611 L 330 611 L 325 609 L 321 609 L 313 606 L 310 606 L 302 603 L 299 603 L 295 601 L 292 601 L 291 600 L 271 594 L 268 592 L 266 592 L 262 590 L 257 585 L 253 578 L 250 575 L 240 560 L 235 550 L 233 548 L 228 538 L 228 536 L 224 529 L 224 527 L 220 519 L 219 514 L 217 511 L 217 509 L 215 505 L 215 502 L 214 501 L 214 499 L 211 492 L 211 489 L 209 485 L 209 482 L 207 477 L 207 473 L 206 472 L 206 468 L 205 467 L 205 463 L 204 462 L 204 458 L 203 457 L 202 445 L 201 444 L 201 438 L 200 437 L 200 428 L 199 427 L 199 413 L 198 412 L 198 385 L 199 384 L 199 370 L 200 369 L 200 361 L 201 360 L 201 353 L 202 352 L 203 341 L 204 340 L 206 326 L 207 325 L 207 322 L 208 321 L 211 306 L 215 296 L 215 293 L 216 292 L 217 287 L 219 284 L 220 279 L 222 276 L 224 269 L 227 264 L 227 262 L 239 238 L 258 210 L 263 205 L 267 203 L 269 203 L 272 201 L 277 200 L 285 196 L 287 196 L 294 193 L 297 193 L 307 189 L 310 189 L 314 187 L 317 187 L 318 186 L 325 185 L 329 183 L 332 183 L 333 182 L 336 182 L 337 181 L 340 181 L 345 179 L 349 179 L 350 178 L 353 178 L 354 177 L 357 177 L 362 175 L 366 175 L 367 174 L 371 174 L 372 173 L 376 173 L 377 172 L 381 172 L 382 171 L 387 171 L 388 170 L 392 170 L 393 169 L 397 169 L 398 168 L 410 167 L 411 166 L 423 165 L 424 164 L 430 164 L 431 163 L 437 163 L 438 162 L 444 162 L 445 161 L 450 161 L 451 160 L 458 160 L 459 159 L 466 159 L 467 158 L 482 157 L 483 156 L 491 156 L 492 155 L 499 155 L 500 154 L 508 154 L 509 153 L 517 153 L 518 152 L 528 152 L 529 151 L 539 151 L 540 150 L 550 150 L 551 149 L 563 149 L 564 148 L 578 148 L 579 147 L 595 147 L 596 146 Z M 1616 144 L 1722 144 L 1723 145 L 1723 651 L 1722 652 L 1616 652 L 1615 651 L 1616 650 L 1616 646 L 1615 645 L 1615 145 Z M 1601 144 L 1613 144 L 1614 145 L 1614 651 L 1613 652 L 1601 652 L 1562 602 L 1562 588 L 1563 587 L 1563 573 L 1564 572 L 1564 556 L 1565 555 L 1565 538 L 1566 537 L 1567 488 L 1568 487 L 1568 445 L 1569 444 L 1569 344 L 1568 343 L 1568 309 L 1567 308 L 1566 261 L 1565 260 L 1565 243 L 1564 242 L 1564 227 L 1563 226 L 1563 211 L 1562 210 L 1562 197 L 1561 196 L 1561 194 L 1565 190 L 1579 171 Z M 1726 143 L 1748 143 L 1749 144 L 1748 146 L 1749 147 L 1749 175 L 1750 176 L 1750 204 L 1751 205 L 1750 206 L 1750 208 L 1751 209 L 1751 252 L 1752 253 L 1752 294 L 1753 295 L 1753 344 L 1754 345 L 1753 347 L 1754 349 L 1754 459 L 1753 460 L 1753 508 L 1752 509 L 1752 549 L 1751 550 L 1750 622 L 1749 623 L 1749 649 L 1748 650 L 1749 651 L 1748 652 L 1726 652 L 1725 651 L 1725 144 Z M 1344 142 L 1345 141 L 1347 142 L 1346 143 Z M 695 134 L 696 135 L 704 136 L 705 137 L 708 137 L 709 138 L 712 138 L 713 139 L 716 139 L 717 140 L 720 140 L 721 141 L 724 141 L 725 142 L 728 142 L 729 143 L 744 146 L 748 148 L 751 148 L 752 149 L 755 149 L 756 150 L 759 150 L 760 151 L 763 151 L 764 152 L 767 152 L 768 153 L 771 153 L 772 154 L 775 154 L 776 155 L 779 155 L 780 156 L 783 156 L 784 157 L 787 157 L 788 158 L 791 158 L 792 159 L 795 159 L 796 160 L 799 160 L 800 161 L 803 161 L 804 162 L 807 162 L 808 163 L 811 163 L 812 164 L 815 164 L 816 165 L 819 165 L 820 166 L 823 166 L 824 167 L 827 167 L 828 168 L 831 168 L 832 169 L 835 169 L 836 170 L 839 170 L 844 172 L 848 172 L 849 173 L 852 173 L 853 174 L 856 174 L 857 175 L 860 175 L 861 176 L 864 176 L 865 177 L 868 177 L 869 178 L 872 178 L 873 179 L 876 179 L 881 181 L 881 184 L 880 185 L 880 193 L 879 194 L 879 203 L 878 204 L 878 213 L 877 214 L 876 233 L 875 234 L 875 243 L 874 244 L 874 253 L 873 254 L 872 276 L 871 277 L 870 303 L 869 304 L 869 318 L 868 319 L 868 337 L 867 338 L 867 367 L 866 368 L 866 435 L 867 436 L 867 462 L 868 463 L 869 500 L 870 501 L 870 514 L 871 515 L 872 539 L 873 540 L 873 550 L 874 551 L 874 560 L 875 561 L 875 570 L 876 571 L 876 580 L 877 581 L 877 589 L 878 590 L 878 598 L 879 599 L 880 613 L 877 615 L 874 615 L 873 616 L 870 616 L 869 617 L 866 617 L 861 619 L 857 619 L 856 620 L 853 620 L 852 621 L 849 621 L 848 622 L 845 622 L 844 623 L 841 623 L 840 624 L 837 624 L 836 625 L 833 625 L 832 626 L 829 626 L 828 627 L 825 627 L 820 629 L 816 629 L 812 631 L 809 631 L 804 633 L 800 633 L 799 634 L 796 634 L 795 635 L 792 635 L 787 637 L 783 637 L 779 639 L 776 639 L 775 640 L 772 640 L 771 641 L 768 641 L 767 642 L 764 642 L 763 643 L 760 643 L 759 644 L 756 644 L 755 645 L 752 645 L 751 646 L 748 646 L 747 647 L 744 647 L 743 648 L 740 648 L 739 649 L 736 649 L 735 650 L 732 650 L 731 651 L 728 651 L 727 652 L 720 653 L 716 655 L 713 655 L 712 656 L 709 656 L 708 657 L 705 657 L 704 658 L 701 658 L 700 659 L 697 659 L 696 660 L 691 661 L 688 655 L 686 653 L 686 651 L 683 646 L 683 644 L 678 631 L 675 616 L 674 615 L 674 611 L 672 606 L 671 596 L 670 595 L 670 591 L 669 590 L 669 585 L 668 584 L 668 578 L 667 577 L 666 564 L 665 563 L 665 556 L 664 555 L 664 548 L 663 547 L 663 537 L 662 536 L 662 526 L 661 525 L 661 514 L 660 513 L 659 473 L 658 472 L 657 374 L 658 373 L 658 336 L 659 335 L 659 311 L 660 310 L 661 277 L 662 276 L 662 265 L 663 264 L 664 247 L 665 246 L 665 239 L 666 238 L 666 231 L 667 230 L 667 225 L 668 224 L 669 211 L 670 210 L 670 205 L 671 204 L 671 200 L 672 199 L 674 185 L 676 180 L 676 176 L 677 175 L 679 164 L 681 160 L 681 157 L 682 156 L 682 153 L 683 152 L 685 144 L 691 134 Z M 282 128 L 283 129 L 282 130 L 282 134 L 281 135 L 281 169 L 282 170 L 283 195 L 262 203 L 255 210 L 237 237 L 225 261 L 225 263 L 222 268 L 222 270 L 218 278 L 217 283 L 215 286 L 215 288 L 211 298 L 211 301 L 209 305 L 209 308 L 207 312 L 205 323 L 204 324 L 204 328 L 203 329 L 203 333 L 202 334 L 202 338 L 201 339 L 201 344 L 200 345 L 200 350 L 199 351 L 198 365 L 197 366 L 197 377 L 196 378 L 196 418 L 197 419 L 197 430 L 198 431 L 198 439 L 199 440 L 200 453 L 201 454 L 201 459 L 202 460 L 202 464 L 203 465 L 203 469 L 204 470 L 204 474 L 205 475 L 206 482 L 208 486 L 208 489 L 211 497 L 211 500 L 212 501 L 215 512 L 217 515 L 218 520 L 220 523 L 222 530 L 226 537 L 226 539 L 229 545 L 231 547 L 235 556 L 256 587 L 263 593 L 265 593 L 273 597 L 275 597 L 279 599 L 282 599 L 283 600 L 282 622 L 281 623 L 281 661 L 282 662 L 282 665 L 280 666 L 272 662 L 270 662 L 263 658 L 261 658 L 257 655 L 244 649 L 234 642 L 231 641 L 219 631 L 218 631 L 201 613 L 199 609 L 192 600 L 187 590 L 185 588 L 175 568 L 175 566 L 172 561 L 172 559 L 166 546 L 165 541 L 163 538 L 163 536 L 155 514 L 155 511 L 152 504 L 152 501 L 150 497 L 150 494 L 149 493 L 149 490 L 148 489 L 148 486 L 147 485 L 147 482 L 145 477 L 145 473 L 144 472 L 144 468 L 143 467 L 143 462 L 142 461 L 142 457 L 141 456 L 141 451 L 140 450 L 140 445 L 139 444 L 138 429 L 137 428 L 137 421 L 136 420 L 135 396 L 136 395 L 136 383 L 137 382 L 137 374 L 138 373 L 138 366 L 139 365 L 139 360 L 140 359 L 140 353 L 141 352 L 141 348 L 142 347 L 142 342 L 143 341 L 143 337 L 144 336 L 146 322 L 147 321 L 147 318 L 148 317 L 148 314 L 149 313 L 152 298 L 154 294 L 154 291 L 157 284 L 157 281 L 160 274 L 160 271 L 161 270 L 164 259 L 166 256 L 168 248 L 170 245 L 170 243 L 172 240 L 172 238 L 174 235 L 176 228 L 179 223 L 179 221 L 187 205 L 189 203 L 194 193 L 207 175 L 225 158 L 248 143 L 264 135 L 266 135 L 271 132 L 273 132 L 278 129 Z M 1180 127 L 1181 126 L 1186 126 L 1187 127 L 1208 127 L 1209 128 L 1238 129 L 1239 130 L 1261 131 L 1262 132 L 1281 133 L 1282 134 L 1290 134 L 1291 135 L 1299 135 L 1300 136 L 1308 136 L 1309 137 L 1315 137 L 1316 138 L 1322 138 L 1323 139 L 1330 139 L 1331 140 L 1335 140 L 1339 143 L 1341 143 L 1344 145 L 1346 145 L 1349 147 L 1356 149 L 1361 152 L 1359 154 L 1355 154 L 1354 155 L 1340 156 L 1339 157 L 1333 157 L 1332 158 L 1325 158 L 1324 159 L 1318 159 L 1317 160 L 1308 160 L 1307 161 L 1299 161 L 1298 162 L 1279 163 L 1278 164 L 1254 165 L 1253 166 L 1236 166 L 1235 167 L 1216 167 L 1215 168 L 1188 168 L 1186 166 L 1186 160 L 1185 159 L 1185 154 L 1184 153 L 1184 148 L 1183 147 L 1183 142 L 1182 141 L 1182 136 L 1181 135 L 1181 129 Z M 1177 126 L 1179 131 L 1179 136 L 1180 137 L 1180 142 L 1181 143 L 1181 148 L 1182 149 L 1182 154 L 1183 155 L 1183 161 L 1184 162 L 1184 166 L 1185 167 L 1184 168 L 1173 168 L 1172 169 L 1147 169 L 1145 166 L 1145 163 L 1144 162 L 1144 159 L 1142 154 L 1142 150 L 1141 149 L 1141 146 L 1139 141 L 1139 137 L 1137 132 L 1137 128 L 1138 127 L 1165 127 L 1166 126 Z M 738 126 L 739 125 L 1133 125 L 1134 126 L 1134 129 L 1135 130 L 1135 133 L 1137 138 L 1137 142 L 1138 143 L 1138 146 L 1140 151 L 1140 155 L 1141 156 L 1141 159 L 1142 160 L 1142 163 L 1144 168 L 1143 169 L 1119 169 L 1118 170 L 1039 170 L 1038 169 L 1007 169 L 1006 168 L 985 168 L 984 167 L 969 167 L 968 166 L 946 165 L 945 164 L 929 163 L 928 162 L 922 162 L 921 161 L 914 161 L 913 160 L 900 159 L 899 158 L 894 158 L 893 157 L 887 157 L 886 156 L 882 156 L 881 155 L 875 155 L 874 154 L 870 154 L 869 153 L 865 153 L 864 152 L 859 152 L 858 151 L 854 151 L 853 150 L 849 150 L 848 149 L 844 149 L 843 148 L 838 148 L 837 147 L 833 147 L 832 146 L 828 146 L 827 145 L 823 145 L 822 144 L 817 144 L 816 143 L 812 143 L 811 142 L 807 142 L 806 141 L 802 141 L 801 140 L 797 140 L 796 139 L 782 137 L 781 136 L 778 136 L 777 135 L 774 135 L 769 133 L 765 133 L 760 131 L 756 131 L 755 130 L 752 130 L 751 129 L 748 129 L 743 127 L 739 127 Z M 697 131 L 703 128 L 709 127 L 710 126 L 724 125 L 725 126 L 729 126 L 730 127 L 733 127 L 734 128 L 737 128 L 738 129 L 741 129 L 742 130 L 745 130 L 750 132 L 754 132 L 755 133 L 758 133 L 759 134 L 762 134 L 767 136 L 781 138 L 786 140 L 790 140 L 791 141 L 795 141 L 796 142 L 800 142 L 801 143 L 805 143 L 806 144 L 810 144 L 811 145 L 815 145 L 816 146 L 820 146 L 821 147 L 825 147 L 826 148 L 830 148 L 831 149 L 835 149 L 836 150 L 840 150 L 841 151 L 846 151 L 847 152 L 852 152 L 853 153 L 857 153 L 858 154 L 862 154 L 863 155 L 868 155 L 869 156 L 873 156 L 874 157 L 891 159 L 892 160 L 898 160 L 899 161 L 911 162 L 912 163 L 919 163 L 920 164 L 926 164 L 927 165 L 934 165 L 935 166 L 953 167 L 954 168 L 979 169 L 980 170 L 998 170 L 999 171 L 1023 171 L 1024 172 L 1134 172 L 1135 171 L 1183 171 L 1184 170 L 1222 170 L 1223 169 L 1240 169 L 1241 168 L 1255 168 L 1256 167 L 1281 166 L 1282 165 L 1301 164 L 1302 163 L 1310 163 L 1311 162 L 1317 162 L 1318 161 L 1326 161 L 1327 160 L 1333 160 L 1334 159 L 1349 158 L 1350 157 L 1355 157 L 1356 156 L 1362 155 L 1364 153 L 1362 150 L 1346 143 L 1347 142 L 1354 142 L 1355 143 L 1370 144 L 1371 145 L 1376 145 L 1377 146 L 1382 146 L 1383 147 L 1389 147 L 1390 148 L 1395 148 L 1396 149 L 1401 149 L 1402 150 L 1419 152 L 1420 153 L 1430 154 L 1431 155 L 1435 155 L 1436 156 L 1441 156 L 1446 158 L 1451 158 L 1456 160 L 1460 160 L 1465 162 L 1469 162 L 1470 163 L 1477 164 L 1481 166 L 1484 166 L 1485 167 L 1492 168 L 1496 170 L 1499 170 L 1503 172 L 1506 172 L 1507 173 L 1521 177 L 1524 179 L 1526 179 L 1529 181 L 1531 181 L 1543 187 L 1547 188 L 1551 191 L 1550 192 L 1332 192 L 1333 204 L 1334 205 L 1335 217 L 1336 218 L 1336 224 L 1337 225 L 1338 240 L 1339 241 L 1339 249 L 1340 250 L 1340 258 L 1341 259 L 1341 268 L 1342 269 L 1342 278 L 1343 279 L 1343 289 L 1344 290 L 1345 316 L 1346 317 L 1346 335 L 1347 336 L 1347 356 L 1348 357 L 1348 397 L 1349 398 L 1348 399 L 1348 403 L 1349 404 L 1348 406 L 1348 440 L 1347 441 L 1347 460 L 1346 461 L 1345 492 L 1344 493 L 1344 504 L 1343 505 L 1343 515 L 1342 516 L 1342 525 L 1341 526 L 1341 536 L 1340 537 L 1339 553 L 1338 554 L 1338 561 L 1337 562 L 1337 569 L 1336 570 L 1335 583 L 1334 584 L 1334 589 L 1333 590 L 1332 603 L 1550 603 L 1551 604 L 1544 608 L 1542 608 L 1537 611 L 1535 611 L 1522 617 L 1520 617 L 1504 623 L 1501 623 L 1497 625 L 1494 625 L 1490 627 L 1483 628 L 1479 630 L 1476 630 L 1475 631 L 1472 631 L 1467 633 L 1463 633 L 1458 635 L 1454 635 L 1449 637 L 1445 637 L 1444 638 L 1440 638 L 1439 639 L 1435 639 L 1434 640 L 1430 640 L 1429 641 L 1424 641 L 1423 642 L 1418 642 L 1417 643 L 1412 643 L 1411 644 L 1406 644 L 1405 645 L 1400 645 L 1399 646 L 1394 646 L 1393 647 L 1373 649 L 1372 650 L 1365 650 L 1364 651 L 1351 652 L 1350 653 L 1347 653 L 1346 652 L 1362 646 L 1364 644 L 1364 642 L 1359 639 L 1355 639 L 1354 638 L 1350 638 L 1349 637 L 1343 637 L 1342 636 L 1336 636 L 1335 635 L 1321 634 L 1320 633 L 1304 632 L 1303 631 L 1294 631 L 1293 630 L 1284 630 L 1283 629 L 1273 629 L 1272 628 L 1244 627 L 1243 626 L 1221 626 L 1220 625 L 1183 625 L 1182 624 L 1142 624 L 1141 623 L 1079 623 L 1078 622 L 1056 622 L 1055 623 L 1022 623 L 1021 624 L 977 625 L 976 626 L 963 626 L 962 627 L 942 628 L 941 629 L 933 629 L 932 630 L 926 630 L 925 631 L 910 632 L 909 633 L 897 634 L 896 635 L 891 635 L 890 636 L 884 636 L 883 637 L 878 637 L 877 638 L 873 638 L 872 639 L 867 639 L 866 640 L 849 642 L 848 643 L 844 643 L 843 644 L 832 645 L 831 646 L 821 647 L 820 648 L 816 648 L 815 649 L 811 649 L 810 650 L 805 650 L 800 652 L 796 652 L 795 653 L 791 653 L 786 655 L 782 655 L 781 656 L 767 658 L 766 659 L 763 659 L 758 661 L 744 663 L 743 664 L 740 664 L 739 665 L 736 665 L 731 667 L 727 667 L 726 668 L 722 668 L 721 669 L 710 668 L 709 667 L 703 666 L 698 664 L 697 663 L 699 661 L 706 660 L 710 658 L 714 658 L 718 656 L 721 656 L 722 655 L 725 655 L 726 654 L 729 654 L 730 653 L 745 650 L 749 648 L 752 648 L 753 647 L 756 647 L 757 646 L 760 646 L 761 645 L 764 645 L 765 644 L 768 644 L 769 643 L 772 643 L 773 642 L 776 642 L 777 641 L 780 641 L 785 639 L 789 639 L 790 638 L 793 638 L 794 637 L 805 635 L 809 633 L 813 633 L 814 632 L 817 632 L 818 631 L 821 631 L 822 630 L 825 630 L 826 629 L 829 629 L 830 628 L 833 628 L 834 627 L 837 627 L 838 626 L 841 626 L 846 624 L 850 624 L 851 623 L 854 623 L 855 622 L 858 622 L 859 621 L 862 621 L 863 620 L 866 620 L 867 619 L 870 619 L 875 617 L 879 617 L 883 615 L 882 613 L 881 597 L 880 596 L 879 579 L 878 578 L 877 558 L 876 557 L 876 547 L 875 546 L 875 536 L 874 535 L 874 524 L 873 523 L 873 512 L 872 511 L 871 480 L 870 479 L 870 458 L 869 457 L 869 422 L 868 421 L 869 346 L 870 345 L 871 308 L 872 307 L 873 281 L 874 280 L 875 258 L 876 257 L 876 247 L 877 246 L 877 238 L 878 237 L 878 228 L 879 227 L 879 218 L 880 217 L 880 207 L 881 206 L 881 198 L 882 197 L 883 179 L 882 178 L 879 178 L 874 176 L 870 176 L 869 175 L 866 175 L 865 174 L 862 174 L 861 173 L 858 173 L 857 172 L 854 172 L 853 171 L 850 171 L 849 170 L 846 170 L 841 168 L 833 167 L 829 165 L 826 165 L 825 164 L 822 164 L 821 163 L 818 163 L 817 162 L 814 162 L 809 160 L 805 160 L 804 159 L 801 159 L 800 158 L 785 155 L 781 153 L 777 153 L 776 152 L 765 150 L 761 148 L 758 148 L 757 147 L 754 147 L 753 146 L 750 146 L 749 145 L 734 142 L 730 140 L 727 140 L 726 139 L 723 139 L 718 137 L 714 137 L 713 136 L 698 133 Z M 288 96 L 289 98 L 288 99 L 288 102 L 286 107 L 286 111 L 285 112 L 284 124 L 280 127 L 278 127 L 275 129 L 268 131 L 259 136 L 257 136 L 253 138 L 251 140 L 237 147 L 224 156 L 213 166 L 212 166 L 203 176 L 187 200 L 177 220 L 177 222 L 173 229 L 173 231 L 169 239 L 169 241 L 166 247 L 164 255 L 162 258 L 162 261 L 161 262 L 159 270 L 157 273 L 155 283 L 152 290 L 151 297 L 149 301 L 149 304 L 148 305 L 148 308 L 147 309 L 147 312 L 145 317 L 145 321 L 144 322 L 144 326 L 142 331 L 141 341 L 140 342 L 140 346 L 139 347 L 138 359 L 137 360 L 137 365 L 136 366 L 136 373 L 135 374 L 134 395 L 133 396 L 133 401 L 134 402 L 134 418 L 135 419 L 135 428 L 136 429 L 137 444 L 138 445 L 140 462 L 141 463 L 142 472 L 143 473 L 144 481 L 146 486 L 146 490 L 148 494 L 148 497 L 152 508 L 154 518 L 155 519 L 161 539 L 163 542 L 165 550 L 168 555 L 168 557 L 173 567 L 173 569 L 184 591 L 201 617 L 207 623 L 207 624 L 220 636 L 227 640 L 233 645 L 248 653 L 250 655 L 256 658 L 258 658 L 269 664 L 271 664 L 274 666 L 276 666 L 283 669 L 286 689 L 289 695 L 289 697 L 288 698 L 286 698 L 285 697 L 282 697 L 272 693 L 269 693 L 268 692 L 242 684 L 239 682 L 237 682 L 234 680 L 227 678 L 202 666 L 200 664 L 195 662 L 190 658 L 187 657 L 162 639 L 148 626 L 147 626 L 128 606 L 128 605 L 117 592 L 105 574 L 101 566 L 99 564 L 87 540 L 87 538 L 83 531 L 83 529 L 80 524 L 79 519 L 77 516 L 77 514 L 69 492 L 69 489 L 67 485 L 67 482 L 66 481 L 66 478 L 64 473 L 64 469 L 63 468 L 63 464 L 62 463 L 61 451 L 60 450 L 60 444 L 59 443 L 58 419 L 57 418 L 57 379 L 58 378 L 58 366 L 59 365 L 60 348 L 61 347 L 61 341 L 62 340 L 62 335 L 63 334 L 64 324 L 65 323 L 68 308 L 70 304 L 70 301 L 71 300 L 78 277 L 80 274 L 82 267 L 85 262 L 87 255 L 99 231 L 101 229 L 103 224 L 107 219 L 108 216 L 116 204 L 129 188 L 129 187 L 161 156 L 162 156 L 174 146 L 186 138 L 194 134 L 196 132 L 215 122 L 217 122 L 219 120 L 221 120 L 226 117 L 228 117 L 241 111 L 255 107 L 258 105 L 260 105 L 273 100 L 276 100 L 277 99 L 287 97 Z M 1721 79 L 1722 80 L 1742 80 L 1743 81 L 1751 81 L 1752 82 L 1755 82 L 1756 83 L 1759 83 L 1760 84 L 1763 84 L 1766 86 L 1768 86 L 1774 89 L 1780 94 L 1785 102 L 1786 109 L 1787 110 L 1788 131 L 1789 132 L 1789 145 L 1790 146 L 1790 159 L 1791 160 L 1791 174 L 1792 175 L 1792 191 L 1793 192 L 1794 224 L 1795 225 L 1796 264 L 1797 265 L 1797 288 L 1798 289 L 1798 316 L 1799 317 L 1798 319 L 1799 320 L 1799 364 L 1800 365 L 1800 437 L 1799 438 L 1799 483 L 1798 484 L 1798 509 L 1797 510 L 1797 534 L 1796 535 L 1796 556 L 1795 557 L 1794 592 L 1793 593 L 1793 608 L 1792 609 L 1792 624 L 1791 625 L 1791 638 L 1790 639 L 1789 666 L 1788 667 L 1788 678 L 1787 679 L 1787 687 L 1786 688 L 1786 691 L 1781 700 L 1777 704 L 1761 712 L 1753 713 L 1752 714 L 1745 714 L 1744 715 L 1726 715 L 1725 716 L 1707 716 L 1706 717 L 1704 717 L 1703 716 L 1703 707 L 1708 696 L 1708 694 L 1713 685 L 1715 678 L 1718 673 L 1718 671 L 1724 658 L 1724 655 L 1725 654 L 1750 654 L 1750 649 L 1751 648 L 1751 617 L 1752 616 L 1752 579 L 1753 578 L 1753 541 L 1754 540 L 1754 502 L 1755 501 L 1755 439 L 1756 438 L 1756 355 L 1755 354 L 1755 306 L 1754 305 L 1754 262 L 1753 261 L 1753 222 L 1752 221 L 1751 152 L 1750 151 L 1750 142 L 1749 141 L 1726 141 L 1724 139 L 1724 137 L 1721 131 L 1718 121 L 1714 114 L 1714 112 L 1710 105 L 1710 103 L 1704 91 L 1704 89 L 1703 88 L 1703 80 L 1704 79 Z M 1648 78 L 1649 77 L 1650 78 L 1700 79 L 1701 80 L 1701 87 L 1702 88 L 1703 93 L 1709 105 L 1709 107 L 1713 114 L 1713 116 L 1716 121 L 1716 123 L 1720 131 L 1723 141 L 1722 142 L 1721 141 L 1720 142 L 1692 141 L 1670 108 L 1664 101 L 1660 94 L 1656 90 Z M 741 77 L 742 76 L 1163 76 L 1164 77 L 1164 80 L 1163 81 L 1163 86 L 1162 87 L 1161 92 L 1150 109 L 1135 123 L 758 123 L 754 115 L 746 89 L 744 86 L 743 80 Z M 755 122 L 754 123 L 715 123 L 714 124 L 709 124 L 708 125 L 700 127 L 697 129 L 695 129 L 693 131 L 690 132 L 684 142 L 610 143 L 609 144 L 589 144 L 588 145 L 559 146 L 558 147 L 535 148 L 534 149 L 525 149 L 524 150 L 516 150 L 515 151 L 506 151 L 505 152 L 487 153 L 486 154 L 479 154 L 478 155 L 472 155 L 471 156 L 463 156 L 462 157 L 457 157 L 456 158 L 449 158 L 448 159 L 442 159 L 441 160 L 427 161 L 426 162 L 414 163 L 413 164 L 407 164 L 406 165 L 401 165 L 400 166 L 396 166 L 395 167 L 390 167 L 389 168 L 385 168 L 384 169 L 380 169 L 379 170 L 365 172 L 364 173 L 361 173 L 356 175 L 352 175 L 351 176 L 348 176 L 347 177 L 344 177 L 343 178 L 340 178 L 339 179 L 336 179 L 335 180 L 320 183 L 316 185 L 309 186 L 308 187 L 306 187 L 302 189 L 299 189 L 292 192 L 289 192 L 288 193 L 286 193 L 285 192 L 284 172 L 283 171 L 283 137 L 284 136 L 285 123 L 287 121 L 289 121 L 302 116 L 305 116 L 312 113 L 323 111 L 324 110 L 334 108 L 335 107 L 339 107 L 340 106 L 344 106 L 345 105 L 349 105 L 350 104 L 354 104 L 355 103 L 359 103 L 360 102 L 364 102 L 365 101 L 383 99 L 384 98 L 398 97 L 399 96 L 405 96 L 406 95 L 412 95 L 413 94 L 419 94 L 420 93 L 427 93 L 428 92 L 435 92 L 436 91 L 443 91 L 444 90 L 452 90 L 453 89 L 461 89 L 462 88 L 470 88 L 471 87 L 486 86 L 487 85 L 505 84 L 506 83 L 515 83 L 516 82 L 533 81 L 534 80 L 543 80 L 544 79 L 558 78 L 559 77 L 566 77 L 567 76 L 738 76 L 740 78 L 744 93 L 746 96 L 753 119 Z M 557 75 L 556 76 L 549 76 L 548 77 L 541 77 L 540 78 L 532 78 L 531 79 L 522 79 L 521 80 L 513 80 L 512 81 L 504 81 L 503 82 L 495 82 L 494 83 L 485 83 L 484 84 L 467 85 L 466 86 L 450 87 L 449 88 L 442 88 L 441 89 L 434 89 L 433 90 L 426 90 L 425 91 L 418 91 L 417 92 L 410 92 L 409 93 L 403 93 L 402 94 L 382 96 L 381 97 L 376 97 L 375 98 L 370 98 L 369 99 L 364 99 L 363 100 L 358 100 L 357 101 L 343 103 L 342 104 L 339 104 L 338 105 L 335 105 L 334 106 L 326 107 L 318 110 L 315 110 L 308 113 L 305 113 L 298 116 L 292 117 L 289 119 L 287 119 L 286 118 L 287 117 L 287 111 L 288 110 L 290 99 L 293 95 L 295 95 L 302 92 L 310 91 L 311 90 L 315 90 L 316 89 L 320 89 L 321 88 L 325 88 L 326 87 L 330 87 L 331 86 L 336 86 L 337 85 L 342 85 L 343 84 L 348 84 L 349 83 L 354 83 L 355 82 L 360 82 L 361 81 L 368 81 L 369 80 L 376 80 L 377 79 L 384 79 L 385 78 L 393 78 L 394 77 L 404 77 L 405 76 L 431 75 L 432 74 L 450 74 L 451 73 L 542 73 L 543 74 L 556 74 Z M 1137 124 L 1150 112 L 1150 111 L 1157 103 L 1163 92 L 1164 86 L 1165 85 L 1165 80 L 1167 76 L 1170 76 L 1171 75 L 1178 75 L 1179 74 L 1185 74 L 1186 73 L 1191 73 L 1192 72 L 1196 72 L 1197 71 L 1201 71 L 1202 70 L 1216 68 L 1221 66 L 1225 66 L 1230 64 L 1242 63 L 1243 62 L 1254 61 L 1255 60 L 1271 59 L 1272 58 L 1292 57 L 1293 56 L 1305 56 L 1306 55 L 1319 55 L 1320 54 L 1334 54 L 1335 53 L 1398 52 L 1399 53 L 1423 53 L 1424 54 L 1434 54 L 1435 55 L 1443 55 L 1444 56 L 1452 56 L 1453 57 L 1458 57 L 1459 58 L 1465 58 L 1466 59 L 1470 59 L 1471 60 L 1474 60 L 1479 62 L 1483 62 L 1484 63 L 1491 64 L 1494 66 L 1496 66 L 1503 69 L 1511 69 L 1512 70 L 1542 71 L 1543 72 L 1559 72 L 1560 73 L 1581 73 L 1582 74 L 1599 74 L 1600 75 L 1618 75 L 1619 76 L 1644 77 L 1666 106 L 1689 141 L 1688 142 L 1687 141 L 1681 141 L 1680 142 L 1676 142 L 1675 141 L 1626 141 L 1625 142 L 1600 142 L 1582 164 L 1572 178 L 1567 183 L 1560 193 L 1537 181 L 1535 181 L 1527 177 L 1525 177 L 1503 169 L 1500 169 L 1489 165 L 1486 165 L 1478 162 L 1470 161 L 1469 160 L 1466 160 L 1465 159 L 1462 159 L 1457 157 L 1453 157 L 1452 156 L 1448 156 L 1447 155 L 1443 155 L 1442 154 L 1438 154 L 1437 153 L 1432 153 L 1431 152 L 1426 152 L 1425 151 L 1421 151 L 1420 150 L 1409 149 L 1408 148 L 1402 148 L 1401 147 L 1396 147 L 1395 146 L 1390 146 L 1389 145 L 1383 145 L 1382 144 L 1376 144 L 1375 143 L 1363 142 L 1362 141 L 1355 141 L 1354 140 L 1347 140 L 1346 139 L 1339 139 L 1338 138 L 1332 138 L 1331 137 L 1325 137 L 1324 136 L 1318 136 L 1317 135 L 1302 134 L 1301 133 L 1295 133 L 1294 132 L 1285 132 L 1284 131 L 1265 130 L 1264 129 L 1240 128 L 1239 127 L 1227 127 L 1226 126 L 1213 126 L 1212 125 L 1189 125 L 1188 124 L 1148 124 L 1147 125 L 1138 125 Z"/>
</g>
</svg>